<?xml version="1.0" encoding="UTF-8" standalone="no"?>
<svg
   id="Layer_1"
   data-name="Layer 1"
   viewBox="0 0 1793.4699 385.1"
   version="1.1"
   width="1793.47"
   height="385.10001"
   xmlns="http://www.w3.org/2000/svg"
   xmlns:svg="http://www.w3.org/2000/svg"
   xmlns:rdf="http://www.w3.org/1999/02/22-rdf-syntax-ns#"
   xmlns:cc="http://creativecommons.org/ns#"
   xmlns:dc="http://purl.org/dc/elements/1.1/">
  <title
     id="title18">l-acoustics-logo-grey</title>
  <defs
     id="defs1">
    <style
       id="style1">
      .cls-1 {
        fill: #fff;
      }
    </style>
  </defs>
  <g
     id="g7"
     transform="translate(-2,-1.99)">
    <rect
       class="cls-1"
       x="10.36"
       y="5.1799998"
       width="169.85001"
       height="169.85001"
       id="rect1"
       style="fill:#000000;fill-opacity:1" />
    <rect
       class="cls-1"
       x="214.19"
       y="5.1799998"
       width="169.85001"
       height="169.85001"
       id="rect2"
       style="fill:#000000;fill-opacity:1" />
    <rect
       class="cls-1"
       x="214.19"
       y="209"
       width="169.85001"
       height="169.85001"
       id="rect3"
       style="fill:#000000;fill-opacity:1" />
    <path
       class="cls-1"
       d="m 188.58,293.8 c 0,51.52 -41.77,93.29 -93.29,93.29 C 43.77,387.09 2,345.32 2,293.8 c 0,-51.52 41.77,-93.29 93.29,-93.29 51.52,0 93.29,41.77 93.29,93.29"
       id="path3"
       style="fill:#000000;fill-opacity:1" />
    <g
       id="g6">
      <path
         class="cls-1"
         d="m 807.74,148.03 c 18.55,0 32.14,-13.88 32.14,-32.35 0,-18.47 -13.6,-32.53 -32.14,-32.53 -18.54,0 -32.19,13.93 -32.19,32.53 0,18.6 13.64,32.35 32.19,32.35 z m 64.69,-32.35 c 0,35.93 -26.08,62.71 -62.09,62.71 -14.35,0 -27.08,-4.89 -36.97,-13.28 l -10.74,9.91 H 746 V 5.18 h 31.93 v 57.58 c 9.12,-6.24 20.18,-9.78 32.4,-9.78 36.01,0 62.09,26.74 62.09,62.7"
         id="path4"
         style="fill:#000000;fill-opacity:1" />
      <path
         class="cls-1"
         d="m 548.87,115.69 c 0,-18.61 -13.64,-32.53 -32.19,-32.53 -18.55,0 -32.14,13.88 -32.14,32.53 0,18.65 13.6,32.53 32.14,32.53 18.54,0 32.19,-13.97 32.19,-32.53 M 578.41,5.18 v 169.85 h -16.63 l -10.72,-9.88 c -9.91,8.48 -22.67,13.43 -36.98,13.43 -35.83,0 -62.09,-26.96 -62.09,-62.89 0,-35.93 26.27,-62.7 62.09,-62.7 12.19,0 23.27,3.56 32.4,9.83 V 5.18 Z"
         id="path5"
         style="fill:#000000;fill-opacity:1" />
      <path
         class="cls-1"
         d="m 655.16,27.89 c 9.79,0 16.26,5.94 16.26,14.7 0,9.76 -9.78,16.37 -22.39,23.38 -6.71,-10.16 -10.23,-17.84 -10.23,-23.2 0,-8.89 6.47,-14.88 16.35,-14.88 m 57.91,116.74 c 9.35,-13.51 14.91,-30.6 15.69,-50.21 h -29.78 c -0.73,9.72 -3.12,18.47 -6.87,25.91 -3.98,10.04 -10.16,16.86 -19.38,21.51 -6.77,3.43 -14.76,5.49 -23,5.49 -14.02,0 -23.33,-7.67 -23.33,-19.31 0,-9.97 5.97,-17.27 14.29,-24 9.13,-7.38 13.79,-9.54 24.98,-15.55 18.65,-10.85 36.89,-23.25 36.89,-46.09 0,-24.2 -19.01,-40.39 -47.4,-40.39 -28.39,0 -47.89,16.06 -47.89,40.57 0,9.58 2.89,19.37 15.83,38.12 -16.02,10.51 -29.85,24.7 -29.85,48.47 0,29.48 21.36,48.74 53.15,48.74 17.64,0 33.27,-4.65 46.06,-13.05 2.9,3.29 5.91,6.68 9.01,10.17 h 38.05 c -9.4,-10.79 -18.22,-20.92 -26.45,-30.38"
         id="path6"
         style="fill:#000000;fill-opacity:1" />
    </g>
  </g>
  <g
     id="g18"
     transform="translate(-2,-1.99)">
    <path
       class="cls-1"
       d="m 570.6,378.69 h -17.54 v -16.6 c -8.83,11.42 -22.36,18.83 -40.73,18.83 -31.31,0 -55.68,-24.48 -55.68,-58.03 0,-33.55 24.37,-57.91 55.68,-57.91 18.36,0 31.9,7.53 40.73,18.83 v -16.6 H 570.6 V 378.68 Z M 474.55,322.9 c 0,23.07 16.24,41.55 39.9,41.55 23.66,0 39.67,-17.89 39.67,-41.55 0,-23.66 -16.48,-41.43 -39.67,-41.43 -23.19,0 -39.9,18.48 -39.9,41.43 z"
       id="path7"
       style="fill:#000000;fill-opacity:1" />
    <path
       class="cls-1"
       d="m 702.32,332.19 c 0,33.08 -23.78,48.73 -50.61,48.73 -26.83,0 -50.61,-15.66 -50.61,-48.73 v -64.97 h 17.54 v 63.33 c 0,23.07 14.01,33.9 33.08,33.9 19.07,0 32.96,-10.83 32.96,-33.9 v -63.33 h 17.66 v 64.97 z"
       id="path8"
       style="fill:#000000;fill-opacity:1" />
    <path
       class="cls-1"
       d="m 820.73,283.81 v -74.63 h 17.54 v 169.5 h -17.54 v -16.6 c -8.83,11.42 -22.36,18.83 -40.73,18.83 -31.31,0 -55.68,-24.48 -55.68,-58.03 0,-33.55 24.37,-57.91 55.68,-57.91 18.36,0 31.9,7.53 40.73,18.83 z m -78.51,39.08 c 0,23.07 16.24,41.55 39.9,41.55 23.66,0 39.67,-17.89 39.67,-41.55 0,-23.66 -16.48,-41.43 -39.67,-41.43 -23.19,0 -39.9,18.48 -39.9,41.43 z"
       id="path9"
       style="fill:#000000;fill-opacity:1" />
    <path
       class="cls-1"
       d="m 891.36,227.67 c 0,7.06 -5.53,12.36 -12.48,12.36 -6.95,0 -12.36,-5.3 -12.36,-12.36 0,-7.06 5.3,-12.48 12.36,-12.48 7.06,0 12.48,5.42 12.48,12.48 z m -3.65,151.02 H 870.05 V 267.22 h 17.66 z"
       id="path10"
       style="fill:#000000;fill-opacity:1" />
    <path
       class="cls-1"
       d="m 1028.37,322.89 c 0,33.08 -25.19,58.03 -58.74,58.03 -33.55,0 -58.62,-24.95 -58.62,-58.03 0,-33.08 25.07,-57.91 58.62,-57.91 33.55,0 58.74,24.95 58.74,57.91 z m -99.46,0 c 0,24.13 17.54,41.55 40.73,41.55 23.19,0 40.73,-17.42 40.73,-41.55 0,-24.13 -17.66,-41.43 -40.73,-41.43 -23.07,0 -40.73,17.42 -40.73,41.43 z"
       id="path11"
       style="fill:#000000;fill-opacity:1" />
    <path
       class="cls-1"
       d="m 1127.36,283.11 h -48.14 v 56.26 c 0,17.42 9.18,25.07 22.13,25.07 8.59,0 16.95,-3.18 23.42,-7.89 l 8.24,13.3 c -8.36,6.36 -19.42,11.06 -33.08,11.06 -24.01,0 -38.25,-13.18 -38.25,-41.2 v -56.62 h -24.37 V 267.2 h 24.37 v -35.43 h 17.54 v 35.43 h 48.14 v 15.89 z"
       id="path12"
       style="fill:#000000;fill-opacity:1" />
    <path
       class="cls-1"
       d="m 1248.13,322.54 c 0,2.24 -0.12,4.59 -0.35,6.59 h -89.34 c 2.47,24.01 19.3,36.37 39.43,36.37 13.77,0 25.78,-5.3 35.31,-14.01 l 9.42,12.01 c -13.89,13.3 -29.43,17.42 -45.79,17.42 -32.96,0 -56.38,-23.42 -56.38,-57.91 0,-34.49 23.54,-58.03 55.32,-58.03 31.78,0 52.14,23.66 52.38,57.56 z m -89.46,-7.65 h 71.57 c -2.24,-20.83 -15.89,-34.25 -34.84,-34.25 -20.6,0 -33.9,14.12 -36.72,34.25 z"
       id="path13"
       style="fill:#000000;fill-opacity:1" />
    <path
       class="cls-1"
       d="m 1361.95,282.52 -11.3,11.89 c -8.36,-8.12 -18.36,-12.95 -30.49,-12.95 -22.36,0 -39.31,17.42 -39.31,41.43 0,24.01 16.95,41.55 39.31,41.55 12.12,0 22.95,-5.42 30.84,-13.07 l 10.95,12.01 c -10.12,11.42 -24.84,17.54 -41.32,17.54 -34.25,0 -57.68,-24.95 -57.68,-58.03 0,-33.08 23.42,-57.91 57.68,-57.91 16.48,0 31.31,6.12 41.32,17.54 z"
       id="path14"
       style="fill:#000000;fill-opacity:1" />
    <path
       class="cls-1"
       d="m 1400.21,282.75 c 9.18,-12.95 23.78,-17.77 37.31,-17.77 27.54,0 46.49,17.66 46.49,44.61 v 69.09 h -17.54 v -63.33 c 0,-21.19 -11.77,-33.66 -32.13,-33.66 -18.72,0 -34.13,12.95 -34.13,34.13 v 62.86 h -17.66 v -169.5 h 17.66 z"
       id="path15"
       style="fill:#000000;fill-opacity:1" />
    <path
       class="cls-1"
       d="m 1615.97,309.59 v 69.09 h -17.54 v -63.33 c 0,-21.19 -11.77,-33.66 -32.13,-33.66 -18.72,0 -34.13,12.95 -34.13,34.13 v 62.86 h -17.66 V 267.21 h 17.42 v 15.89 c 9.06,-13.3 23.89,-18.13 37.55,-18.13 27.54,0 46.49,17.66 46.49,44.61 z"
       id="path16"
       style="fill:#000000;fill-opacity:1" />
    <path
       class="cls-1"
       d="m 1667.76,227.67 c 0,7.06 -5.53,12.36 -12.48,12.36 -6.95,0 -12.36,-5.3 -12.36,-12.36 0,-7.06 5.3,-12.48 12.36,-12.48 7.06,0 12.48,5.42 12.48,12.48 z m -3.65,151.02 h -17.66 V 267.22 h 17.66 z"
       id="path17"
       style="fill:#000000;fill-opacity:1" />
    <path
       class="cls-1"
       d="m 1713.55,312.42 h 16.12 l 42.96,-45.2 h 22.01 l -50.61,52.5 51.44,58.97 h -22.25 l -43.67,-50.26 h -16.01 v 50.26 h -17.66 v -169.5 h 17.66 v 103.23 z"
       id="path18"
       style="fill:#000000;fill-opacity:1" />
  </g>
  <metadata
     id="metadata18">
    <rdf:RDF>
      <cc:Work
         rdf:about="">
        <dc:title>l-acoustics-logo-grey</dc:title>
      </cc:Work>
    </rdf:RDF>
  </metadata>
</svg>
